<svg xmlns="http://www.w3.org/2000/svg" width="98" height="98" viewBox="0 0 98 98" fill="none"><g clip-path="url(#clip0_0_25)"><path fill-rule="evenodd" clip-rule="evenodd" d="M47.9689 97.9915C21.479 97.4418 0.153391 75.8733 0 49.2897C0 49.1917 0 49.098 0 49C0 48.9148 0 48.8296 0 48.7401C0 48.5611 0 48.3779 0.00426087 48.199C0.00426087 48.1223 0.00426087 48.0456 0.00426087 47.9689C0.558174 21.4151 22.229 0.0553913 48.8977 0H49C49.1449 0 49.2855 0 49.4304 0C62.0553 0.110783 73.5426 4.99374 82.1709 12.9317C82.7844 13.426 83.3767 13.9543 83.9391 14.521C84.6294 15.2113 85.2728 15.9442 85.8565 16.7111C93.2065 25.0923 97.7401 36.0043 97.9872 47.9646C97.9957 48.3097 97.9957 48.6506 97.9957 48.9957C97.9957 49.3409 97.9957 49.686 97.9872 50.0269C97.7443 61.6804 93.4366 72.3325 86.4232 80.6242C85.6563 81.7405 84.7913 82.7844 83.8198 83.7559C82.8654 84.7104 81.8343 85.5668 80.7392 86.3252C72.4305 93.394 61.7357 97.7401 50.0311 97.983C49.686 97.9915 49.3451 97.9915 49 97.9915C48.6549 97.9915 48.314 97.9915 47.9689 97.983V97.9915ZM80.8457 14.4912C82.0473 15.599 83.1892 16.7708 84.2715 17.9979C88.6133 23.699 89.9044 31.7009 88.1233 40.6061C87.7356 42.5405 87.203 44.509 86.5297 46.4946C83.398 39.413 78.596 32.3485 72.2686 26.0169C66.0307 19.779 59.0727 15.0238 52.0934 11.8878C54.0364 11.2359 55.9623 10.7161 57.8583 10.3369C66.9638 8.51748 75.1191 9.90652 80.8457 14.487V14.4912ZM72.4476 8.30443C65.8219 4.47817 58.1737 2.22417 50.0141 2.04948V10.4562C57.9521 7.53748 65.7665 6.75348 72.4476 8.30443ZM46.5117 11.8836C44.5218 11.2061 42.5448 10.6735 40.6061 10.2857C30.5845 8.28313 21.7134 10.1664 15.9697 15.9143C10.2261 21.658 8.33852 30.5334 10.3411 40.5507C10.7331 42.5064 11.27 44.4963 11.9517 46.5031C15.0835 39.4386 19.877 32.3911 26.1916 26.0765C32.5062 19.7619 39.4812 15.0153 46.5117 11.8836ZM10.5329 50.0141H2.05374C2.22843 58.3569 4.58043 66.1585 8.56435 72.8864C6.84296 66.1159 7.57157 58.131 10.5371 50.0141H10.5329ZM26.1745 90.045C32.6553 93.6582 40.082 95.7801 47.9902 95.9463V88.0935C40.2695 90.8332 32.6851 91.5448 26.1745 90.045ZM46.4946 86.453C44.5517 87.1092 42.6215 87.6248 40.7254 88.004C30.7038 90.0066 21.8327 88.1233 16.089 82.3754C10.3454 76.6317 8.45783 67.7563 10.4604 57.739C10.8311 55.8813 11.3339 53.998 11.9688 52.0934C15.1005 59.0557 19.8471 65.9923 26.0723 72.2132C32.3869 78.5278 39.4301 83.3213 46.4946 86.4488V86.453ZM52.1147 86.4445C54.0108 87.0751 55.8898 87.5779 57.739 87.9486C66.2139 89.6444 73.8707 88.5579 79.5036 84.7018C81.4039 83.0784 83.1722 81.3059 84.787 79.4013C88.6133 73.7684 89.6913 66.133 87.9997 57.6837C87.6333 55.8472 87.1348 53.981 86.5127 52.1019C83.381 59.0812 78.6258 66.035 72.3879 72.2729C66.1159 78.5449 59.1238 83.3128 52.1104 86.4445H52.1147ZM85.1961 50.0141C82.1964 57.1596 77.403 64.3732 70.9477 70.8284C64.4542 77.322 57.1979 82.1325 50.0141 85.1279V56.9593C50.0141 53.1203 53.1245 50.0141 56.9593 50.0141H85.1961ZM88.1744 47.9859H95.9463C95.7843 40.261 93.7519 32.9919 90.2878 26.6177C91.63 33.0345 90.8673 40.4484 88.1702 47.9859H88.1744ZM13.5325 47.9859C16.5407 40.9512 21.283 33.8697 27.636 27.5167C33.9506 21.2021 40.9938 16.4768 47.9859 13.4643V41.0407C47.9859 44.8755 44.8755 47.9859 41.0407 47.9859H13.5325ZM95.9463 50.0141C95.7801 57.8115 93.7136 65.1444 90.1898 71.5613C91.5192 65.089 90.7097 57.6112 87.9486 50.0141H95.9463ZM70.8284 27.4613C64.3732 21.0061 57.1596 16.2126 50.0141 13.213V41.0407C50.0141 44.8755 53.1245 47.9859 56.9593 47.9859H84.9532C81.945 40.9342 77.1942 33.8313 70.8242 27.4613H70.8284ZM47.9859 2.05374V10.2346C39.9584 7.36278 32.0716 6.6853 25.3777 8.4067C32.0417 4.52078 39.7539 2.22843 47.9859 2.05374ZM2.05374 47.9859C2.22843 39.7028 4.55061 31.948 8.48339 25.2499C6.73217 31.9736 7.41391 39.9073 10.3113 47.9859H2.05374ZM27.5167 70.773C33.8697 77.126 40.9512 81.8683 47.9859 84.8765V56.9636C47.9859 53.1245 44.8755 50.0183 41.0407 50.0183H13.2897C16.2936 57.1468 21.0743 64.3391 27.5167 70.7773V70.773ZM50.0141 95.9463V87.8719C57.6581 90.6628 65.187 91.4723 71.6934 90.1217C65.2424 93.688 57.8669 95.7801 50.0141 95.9463ZM53.4824 49C51.4798 48.1265 49.8735 46.5159 49 44.5176C48.1265 46.5202 46.5159 48.1265 44.5176 49C46.5202 49.8735 48.1265 51.4841 49 53.4824C49.8735 51.4798 51.4841 49.8735 53.4824 49Z" fill="white"></path></g><defs><clipPath id="clip0_0_25"><rect width="98" height="98" fill="white"></rect></clipPath></defs></svg>