<svg xmlns="http://www.w3.org/2000/svg" width="755" height="240" viewBox="0 0 755 240" fill="none"><path d="M326.102 2.44749V6.3907H302.947V104.427H298.479V6.3907H275.054V2.44749H326.102Z" fill="white"></path><path d="M376.034 6.3907H344.078V61.8674H370.753V65.8106H344.078V100.484H376.034V104.427H339.61V2.44749H376.034V6.3907Z" fill="white"></path><path d="M389.593 2.44749H394.062C403.45 2.44749 411.439 5.71083 418.029 12.2375C424.618 18.6735 427.913 26.288 427.913 35.0808C427.913 43.8737 424.483 51.4428 417.622 57.7882C410.852 64.1336 403.36 67.3063 395.145 67.3063H394.062V104.427H389.593V2.44749ZM394.062 63.4991H395.145C402.728 63.4991 409.317 60.689 414.914 55.0688C420.601 49.4486 423.445 42.7859 423.445 35.0808C423.445 27.3757 420.556 20.6678 414.779 14.9569C409.092 9.24611 402.547 6.3907 395.145 6.3907H394.062V63.4991Z" fill="white"></path><path d="M471.812 0L522.589 104.427H517.85L498.623 65.5386H444.325L425.368 104.427H421.17L471.812 0ZM471.406 9.38208L446.085 61.5954H496.998L471.406 9.38208Z" fill="white"></path><path d="M536.107 2.44749H600.018V104.427H595.55V6.3907H540.575V104.427H536.107V2.44749Z" fill="white"></path><path d="M699.822 2.44749V104.427H695.354V8.8382L624.536 104.427H620.339V2.44749H624.807V97.7641L695.354 2.44749H699.822Z" fill="white"></path><path d="M749.016 2.44749H754.838V104.427H750.505V72.0653L719.768 104.427H714.758L749.693 67.4422H747.932C740.169 67.4422 732.902 64.2242 726.132 57.7882C719.362 51.3522 715.977 43.7831 715.977 35.0808C715.977 26.288 719.271 18.6735 725.861 12.2375C732.541 5.71083 740.259 2.44749 749.016 2.44749ZM748.068 63.4991H750.505V6.3907H748.745C741.343 6.3907 734.753 9.24611 728.975 14.9569C723.198 20.6678 720.31 27.3757 720.31 35.0808C720.31 42.7859 723.108 49.4486 728.705 55.0688C734.301 60.689 740.756 63.4991 748.068 63.4991Z" fill="white"></path><path d="M259.124 239.063V221.192H266.621L315.825 116.521L365.03 221.192H371.573V239.063H367.347V225.305H263.077V239.063H259.124ZM315.416 126.307L270.846 221.192H360.396L315.416 126.307Z" fill="white"></path><path d="M441.84 118.932L393.317 225.305H389.092L400.814 199.634L362.649 118.932H367.556L403.267 194.67L437.615 118.932H441.84Z" fill="white"></path><path d="M532.325 225.305H455.451V118.932H459.949V221.192H491.707V118.932H496.069V221.192H527.827V118.932H532.325V225.305Z" fill="white"></path><path d="M632.761 118.932V225.305H628.263V125.598L556.978 225.305H552.752V118.932H557.25V218.355L628.263 118.932H632.761Z" fill="white"></path><path fill-rule="evenodd" clip-rule="evenodd" d="M237.884 118.928C237.867 148.207 227.282 175.023 209.74 195.762C207.881 198.47 205.773 201.016 203.414 203.376C201.091 205.7 198.591 207.779 195.932 209.617C175.166 227.302 148.26 237.982 118.87 238C88.7139 238.018 61.1855 226.807 40.2314 208.314C38.4262 206.92 36.7027 205.406 35.0679 203.77C33.6682 202.37 32.3576 200.904 31.1351 199.378C11.7809 178.222 -0.0186971 150.031 2.22396e-05 119.072C0.0397615 53.3501 53.3242 0.0397808 119.014 2.22512e-05C184.704 -0.0397363 237.924 53.2061 237.884 118.928ZM233.892 121.407C233.451 141.706 227.756 160.715 218.113 177.125C222.428 160.52 220.647 140.876 213.314 120.926L229.953 120.916C231.313 120.915 232.633 121.086 233.892 121.407ZM213.492 116.96L229.956 116.95C231.315 116.949 232.635 116.777 233.895 116.454C233.896 116.518 233.898 116.582 233.899 116.645C233.505 95.7908 227.564 76.2995 217.488 59.5865C222.412 76.3687 220.882 96.4789 213.492 116.96ZM207.497 116.963L136.784 117.006C128.026 117.011 120.93 109.912 120.935 101.149L120.977 30.811C138.732 38.1172 156.655 49.9466 172.658 65.9571C188.451 81.7574 200.173 99.4294 207.497 116.963ZM120.981 25.5719C142.174 17.7522 163.014 16.2017 180.227 21.5777C163.157 10.8192 143.054 4.43392 121.487 3.9913C121.164 5.25148 120.992 6.57193 120.991 7.93225L120.981 25.5719ZM116.536 3.99432C95.0628 4.46113 75.0343 10.8167 58.0001 21.5103C75.1214 15.996 95.879 17.3847 117.016 25.0266L117.027 7.93465C117.027 6.57434 116.857 5.25411 116.536 3.99432ZM117.012 31.3961L116.97 101.151C116.965 109.914 109.86 117.022 101.102 117.028L31.2114 117.07C38.5642 99.623 50.2654 82.0453 65.9894 66.3136C81.801 50.4943 99.4784 38.7448 117.012 31.3961ZM25.3753 121.04C17.6885 141.744 15.9717 162.127 20.8363 179.138C10.5251 162.316 4.42173 142.63 3.98938 121.546C5.2488 121.223 6.56843 121.051 7.92791 121.051L25.3753 121.04ZM30.9882 121.037C38.2952 138.755 50.0992 156.637 66.061 172.606C81.8127 188.366 99.4254 200.074 116.906 207.405L116.949 136.851C116.954 128.088 109.858 120.989 101.099 120.994L30.9882 121.037ZM120.87 207.986L120.913 136.849C120.919 128.086 128.023 120.978 136.782 120.973L207.713 120.93C200.394 138.752 188.527 156.757 172.458 172.834C156.476 188.823 138.589 200.654 120.87 207.986ZM116.902 213.782C96.9301 221.049 77.2972 222.739 60.7471 218.302C77.1329 227.922 96.1175 233.592 116.397 234.009C116.72 232.749 116.891 231.428 116.892 230.068L116.902 213.782ZM121.348 234.006C141.763 233.562 160.873 227.795 177.345 218.038C160.674 222.422 140.922 220.635 120.867 213.231L120.857 230.066C120.856 231.426 121.026 232.746 121.348 234.006ZM25.1997 117.073C17.4936 95.8112 16.1034 74.9256 21.689 57.7278C10.8863 74.8352 4.46159 94.983 3.99237 116.593C5.2514 116.914 6.57083 117.085 7.93031 117.084L25.1997 117.073ZM193.537 206.451C198.22 202.446 202.579 198.073 206.568 193.375C216.075 179.417 218.708 160.557 214.578 139.835C213.585 134.852 212.202 129.781 210.438 124.672C202.846 142.283 190.995 159.894 175.26 175.637C159.744 191.16 142.414 202.904 125.058 210.511C130.059 212.225 135.023 213.573 139.903 214.546C160.674 218.69 179.573 216.029 193.537 206.451ZM175.463 63.1506C191.075 78.7702 202.852 96.2377 210.429 113.723C212.142 108.731 213.49 103.776 214.467 98.9047C219.388 74.3586 214.82 52.4362 200.574 38.1836C186.328 23.931 164.417 19.3607 139.882 24.2842C135.051 25.2538 130.136 26.5898 125.185 28.2847C142.572 35.8693 159.931 47.6111 175.463 63.1506ZM24.1414 98.728C25.1332 103.704 26.513 108.767 28.2728 113.867C35.8747 96.459 47.6335 79.0722 63.1876 63.5105C78.9619 47.7286 96.6123 35.852 114.258 28.2583C109.056 26.4462 103.89 25.0295 98.816 24.0171C74.2877 19.1233 52.3704 23.7202 38.1075 37.99C23.8446 52.2598 19.25 74.1878 24.1414 98.728ZM23.9804 140.243C25.0009 135.153 26.4274 129.971 28.251 124.751C35.8266 142.266 47.6171 159.766 63.2559 175.413C78.9748 191.139 96.5659 202.976 114.162 210.551C108.906 212.394 103.689 213.835 98.5647 214.863C76.6747 219.256 56.8724 216.091 42.74 205.235C39.7366 202.577 36.8735 199.764 34.163 196.809C22.8625 182.627 19.5152 162.515 23.9804 140.243ZM118.936 128.195C116.996 124.195 113.75 120.947 109.752 119.006C113.752 117.059 117.002 113.808 118.947 109.806C120.888 113.806 124.134 117.053 128.132 118.995C124.131 120.941 120.881 124.192 118.936 128.195Z" fill="white"></path></svg>